#!OML:ASF F:\Work\Patient Classification 1\justin\Session 1\justin.ASF
:FULLY-SPECIFIED
:DEGREES
5540
root 1.37564 17.0421 0.531301 -0.871595 36.7099 1.60955
lowerback 12.8466 -3.17307 -2.37178
upperback -0.550161 -4.32119 3.21228
thorax -7.3655 -1.94383 5.57473
lowerneck -8.98133 -12.9618 -21.4844
upperneck 7.81942 -17.2707 20.7024
head 7.68983 -7.96985 8.26085
rclavicle -3.57812e-014 9.54166e-015
rhumerus -20.5479 4.65169 -78.29
rradius 133.503
rwrist -9.85599
rhand -14.9851 34.6767
rfingers 7.12502
rthumb 11.1791 4.99453
lclavicle -3.57812e-014 9.54166e-015
lhumerus -18.2478 -30.284 101.661
lradius 129.398
lwrist 4.97231
lhand -11.7251 8.59401
lfingers 7.12502
lthumb 14.3219 38.0801
rfemur -26.1084 1.93881 2.04939
rtibia 34.7901
rfoot -2.13977 -5.55007
rtoes -27.0596
lfemur 4.97672 6.04999 -13.6767
ltibia 32.1622
lfoot -28.5543 1.30716
ltoes -16.1383
5541
root 1.38309 17.0465 0.522346 -0.792384 36.4312 1.51876
lowerback 12.8372 -3.13837 -2.25486
upperback -0.77779 -4.25096 3.2838
thorax -7.616 -1.90089 5.58627
lowerneck -8.89225 -12.8928 -21.2664
upperneck 8.01012 -17.1738 20.2374
head 7.63939 -7.94451 8.08728
rclavicle 5.50137e-014 1.82882e-014
rhumerus -20.958 4.75993 -78.0649
rradius 133.129
rwrist -9.73877
rhand -15.2528 36.0734
rfingers 7.12502
rthumb 10.921 6.37741
lclavicle 5.50137e-014 1.82882e-014
lhumerus -18.792 -30.3523 102.013
lradius 129.561
lwrist 4.98799
lhand -12.012 9.12914
lfingers 7.12502
lthumb 14.0454 38.6346
rfemur -26.2151 2.01137 2.13712
rtibia 34.6256
rfoot -2.08735 -5.37919
rtoes -27.9266
lfemur 4.81178 6.03464 -13.7931
ltibia 32.2242
lfoot -28.5947 2.12622
ltoes -17.4683
5542
root 1.38324 17.0434 0.512542 -0.701917 36.0735 1.44639
lowerback 12.4246 -3.14427 -2.41053
upperback -0.61334 -4.26609 3.46945
thorax -7.17838 -1.91691 5.83263
lowerneck -9.30283 -12.8508 -21.2698
upperneck 8.08998 -17.0281 20.1406
head 7.69428 -7.8555 8.06107
rclavicle 1.3895e-013 2.38542e-015
rhumerus -20.6427 5.08885 -77.8879
rradius 132.774
rwrist -9.53254
rhand -15.9115 37.8773
rfingers 7.12502
rthumb 10.2856 8.1488
lclavicle 1.3895e-013 2.38542e-015
lhumerus -18.4217 -30.2146 101.814
lradius 129.651
lwrist 5.04276
lhand -11.9081 9.35089
lfingers 7.12502
lthumb 14.1456 38.8493
rfemur -26.4592 2.33712 2.16218
rtibia 34.4861
rfoot -2.01688 -5.36625
rtoes -27.6618
lfemur 4.58871 6.15996 -13.8791
ltibia 32.3422
lfoot -28.668 2.93432
ltoes -18.7654
5543
root 1.37736 17.0429 0.502037 -0.707474 35.5736 1.15868
lowerback 12.3369 -3.11944 -2.30333
upperback -0.634308 -4.20336 3.63633
thorax -7.1536 -1.88748 5.9349
lowerneck -9.707 -12.8039 -21.1745
upperneck 8.25155 -16.878 19.8869
head 7.74659 -7.76956 7.96639
rclavicle -5.96851e-014 -2.8625e-014
rhumerus -20.6536 5.36596 -77.8325
rradius 132.549
rwrist -9.32401
rhand -16.3159 39.202
rfingers 7.12502
rthumb 9.89538 9.45457
lclavicle -5.96851e-014 -2.8625e-014
lhumerus -18.2721 -30.0301 101.615
lradius 129.796
lwrist 5.15771
lhand -11.158 9.47669
lfingers 7.12502
lthumb 14.8682 38.9232
rfemur -26.8615 2.92492 2.38714
rtibia 34.3897
rfoot -1.87519 -5.5039
rtoes -27.3532
lfemur 4.3988 6.22755 -13.73
ltibia 32.4932
lfoot -28.8979 2.92929
ltoes -17.5579
5544
root 1.37785 17.0414 0.491289 -0.674805 35.168 1.07355
lowerback 12.3674 -3.09371 -2.18963
upperback -0.627358 -4.14651 3.70659
thorax -7.17268 -1.86168 5.93856
lowerneck -10.2244 -12.7996 -21.1338
upperneck 8.42345 -16.7703 19.7041
head 7.84463 -7.6953 7.89202
rclavicle -6.21202e-014 2.14687e-014
rhumerus -20.5436 5.48573 -77.7118
rradius 132.292
rwrist -9.10983
rhand -16.1934 38.1577
rfingers 7.12502
rthumb 10.0136 8.41595
lclavicle -6.21202e-014 2.14687e-014
lhumerus -18.1805 -29.9126 101.411
lradius 129.978
lwrist 5.37279
lhand -10.5369 9.42531
lfingers 7.12502
lthumb 15.4665 38.8266
rfemur -27.0826 3.21782 2.4641
rtibia 34.3187
rfoot -1.79978 -5.44119
rtoes -27.9332
lfemur 4.31687 6.14827 -13.7896
ltibia 32.6791
lfoot -29.1593 2.79399
ltoes -15.7669
5545
root 1.38524 17.0344 0.47473 -0.504044 34.8928 1.29113
lowerback 12.5395 -3.10122 -2.171
upperback -0.726082 -4.15647 3.66891
thorax -7.37926 -1.85915 5.90938
lowerneck -10.206 -12.7034 -21.2754
upperneck 8.32293 -16.6194 19.8102
head 7.80118 -7.62497 7.98087
rclavicle 2.47487e-014 -1.11319e-014
rhumerus -20.6403 5.66436 -77.6244
rradius 132.125
rwrist -8.83586
rhand -15.7808 34.11
rfingers 7.12502
rthumb 10.4116 4.38782
lclavicle 2.47487e-014 -1.11319e-014
lhumerus -18.3483 -29.8623 101.349
lradius 130.146
lwrist 5.49582
lhand -10.4311 9.36105
lfingers 7.12502
lthumb 15.5685 38.7544
rfemur -27.2287 2.96342 2.29074
rtibia 34.2866
rfoot -1.74465 -4.96903
rtoes -28.4645
lfemur 4.21973 6.11366 -14.1521
ltibia 32.8786
lfoot -29.3497 2.89751
ltoes -14.8171
5546
root 1.39016 17.0291 0.455203 -0.352789 34.4986 1.39168
lowerback 12.764 -3.06397 -2.13224
upperback -0.943088 -4.09958 3.67441
thorax -7.74942 -1.81633 5.91546
lowerneck -9.95242 -12.5388 -21.4881
upperneck 8.2939 -16.4365 20.0209
head 7.75007 -7.54941 8.13708
rclavicle 2.23136e-014 -1.11319e-014
rhumerus -21.0317 5.84779 -77.5798
rradius 132.064
rwrist -8.58532
rhand -15.9051 36.234
rfingers 7.12502
rthumb 10.2917 6.50578
lclavicle 2.23136e-014 -1.11319e-014
lhumerus -18.6442 -29.9937 101.441
lradius 130.322
lwrist 5.37443
lhand -10.9004 9.81624
lfingers 7.12502
lthumb 15.1165 39.2442
rfemur -27.5413 2.82134 2.22488
rtibia 34.3088
rfoot -1.59568 -4.53319
rtoes -28.7244
lfemur 4.06105 6.2142 -14.39
ltibia 33.0799
lfoot -29.5186 2.99537
ltoes -14.1845
5547
root 1.39045 17.0257 0.446329 -0.283146 34.0251 1.29264
lowerback 12.7816 -2.96915 -2.11907
upperback -1.06289 -3.96205 3.77336
thorax -7.89846 -1.74049 5.99942
lowerneck -10.112 -12.4466 -21.5388
upperneck 8.58175 -16.3098 20.0277
head 7.84773 -7.47915 8.16873
rclavicle 8.11538e-014 4.77083e-015
rhumerus -21.2817 5.81869 -77.4669
rradius 131.924
rwrist -8.44527
rhand -15.7415 35.896
rfingers 7.12502
rthumb 10.4496 6.17568
lclavicle 8.11538e-014 4.77083e-015
lhumerus -18.6513 -30.0364 101.408
lradius 129.948
lwrist 5.2829
lhand -11.9374 8.25956
lfingers 7.12502
lthumb 14.1173 37.76
rfemur -27.916 3.04394 2.33286
rtibia 34.3557
rfoot -1.49185 -4.36631
rtoes -28.6971
lfemur 3.8285 6.58502 -14.3729
ltibia 33.2948
lfoot -29.535 3.59078
ltoes -15.8208
5548
root 1.39014 17.0185 0.439102 -0.294799 33.6659 1.15996
lowerback 12.772 -2.91587 -2.08387
upperback -1.0892 -3.87671 3.87321
thorax -7.92677 -1.69654 6.07315
lowerneck -10.3744 -12.3466 -21.4021
upperneck 8.80647 -16.1465 19.8892
head 7.90325 -7.38793 8.11994
rclavicle -4.43787e-014 -1.11319e-014
rhumerus -21.4105 5.68241 -77.3681
rradius 131.808
rwrist -8.50785
rhand -15.1824 33.0095
rfingers 7.12502
rthumb 10.9888 3.31709
lclavicle -4.43787e-014 -1.11319e-014
lhumerus -18.5331 -30.1104 101.314
lradius 129.94
lwrist 5.5089
lhand -11.8211 8.34959
lfingers 7.12502
lthumb 14.2294 37.8422
rfemur -28.1662 2.99103 2.51589
rtibia 34.384
rfoot -1.4273 -3.99914
rtoes -29.0549
lfemur 3.64448 6.96803 -14.274
ltibia 33.5173
lfoot -29.5319 4.13275
ltoes -17.5917
5549
root 1.38975 17.0082 0.42342 -0.322456 33.3101 1.08888
lowerback 12.9369 -2.89632 -2.00941
upperback -1.09038 -3.83265 3.94185
thorax -8.02732 -1.67251 6.11063
lowerneck -10.7934 -12.2729 -21.3976
upperneck 9.05649 -15.9984 19.9064
head 8.02673 -7.29038 8.13911
rclavicle 5.25288e-014 4.77083e-015
rhumerus -21.4486 5.63271 -77.3118
rradius 131.846
rwrist -8.66135
rhand -15.4193 37.1681
rfingers 7.12502
rthumb 10.7603 7.46368
lclavicle 5.25288e-014 4.77083e-015
lhumerus -18.4211 -30.0525 101.108
lradius 129.945
lwrist 5.50479
lhand -11.6468 8.15362
lfingers 7.12502
lthumb 14.3973 37.6343
rfemur -28.3791 2.90132 2.63796
rtibia 34.3951
rfoot -1.33076 -3.59853
rtoes -29.6389
lfemur 3.58439 7.19479 -14.2349
ltibia 33.7049
lfoot -29.6794 4.05439
ltoes -17.197
5550
root 1.39254 16.9997 0.406343 -0.222942 32.8647 1.21649
lowerback 13.166 -2.87625 -2.03673
upperback -1.09621 -3.80771 3.96757
thorax -8.16372 -1.65305 6.16842
lowerneck -11.3279 -12.2817 -21.4135
upperneck 9.32107 -15.9276 19.8408
head 8.18529 -7.22817 8.11237
rclavicle 3.58806e-014 7.95139e-015
rhumerus -21.3224 5.77384 -77.249
rradius 131.851
rwrist -8.60551
rhand -15.0217 36.4136
rfingers 7.12502
rthumb 11.1438 6.72947
lclavicle 3.58806e-014 7.95139e-015
lhumerus -18.3693 -29.9209 100.823
lradius 129.959
lwrist 5.40442
lhand -11.7163 7.84969
lfingers 7.12502
lthumb 14.3304 37.3351
rfemur -28.6572 3.1266 2.49741
rtibia 34.3982
rfoot -1.25163 -3.40027
rtoes -29.6368
lfemur 3.54796 7.46186 -14.4141
ltibia 33.8411
lfoot -29.7813 3.92316
ltoes -16.4841
5551
root 1.4026 16.9951 0.386493 0.000905372 32.4811 1.56943
lowerback 13.3361 -2.88274 -2.16629
upperback -1.06814 -3.84122 3.92956
thorax -8.22046 -1.66268 6.21919
lowerneck -11.7686 -12.3024 -21.247
upperneck 9.42981 -15.8588 19.5391
head 8.23621 -7.18173 7.97185
rclavicle 7.92157e-014 4.77083e-015
rhumerus -21.0851 5.92541 -77.2196
rradius 131.765
rwrist -8.49697
rhand -14.514 34.499
rfingers 7.12502
rthumb 11.6335 4.84196
lclavicle 7.92157e-014 4.77083e-015
lhumerus -18.1011 -29.7906 100.475
lradius 129.934
lwrist 5.39126
lhand -11.7652 7.86421
lfingers 7.12502
lthumb 14.2832 37.353
rfemur -28.8945 3.067 2.15466
rtibia 34.3871
rfoot -1.13678 -2.99663
rtoes -29.5587
lfemur 3.45297 7.86024 -14.8279
ltibia 33.9536
lfoot -29.77 4.07147
ltoes -16.8934
